<svg xmlns="http://www.w3.org/2000/svg" viewBox="0 0 720 420"><rect width="720" height="420" fill="#f4f7fc"/><g font-family="Arial,sans-serif" fill="#101b2a"><text x="28" y="32" font-size="22" font-weight="700">Vancouver trails · distance and duration</text><path d="M75 65V355 M75 355H675" stroke="#d7dee7"/><text x="75" y="378" text-anchor="middle" font-size="16">0</text><text x="60" y="360" text-anchor="end" font-size="16">0</text><path d="M195 65V355 M75 297H675" stroke="#d7dee7"/><text x="195" y="378" text-anchor="middle" font-size="16">6</text><text x="60" y="302" text-anchor="end" font-size="16">3</text><path d="M315 65V355 M75 239H675" stroke="#d7dee7"/><text x="315" y="378" text-anchor="middle" font-size="16">12</text><text x="60" y="244" text-anchor="end" font-size="16">6</text><path d="M435 65V355 M75 181H675" stroke="#d7dee7"/><text x="435" y="378" text-anchor="middle" font-size="16">18</text><text x="60" y="186" text-anchor="end" font-size="16">9</text><path d="M555 65V355 M75 123H675" stroke="#d7dee7"/><text x="555" y="378" text-anchor="middle" font-size="16">24</text><text x="60" y="128" text-anchor="end" font-size="16">12</text><path d="M675 65V355 M75 65H675" stroke="#d7dee7"/><text x="675" y="378" text-anchor="middle" font-size="16">30</text><text x="60" y="70" text-anchor="end" font-size="16">15</text><circle cx="155" cy="326" r="4" fill="#254fdd" opacity=".65"/><circle cx="175" cy="326" r="4" fill="#254fdd" opacity=".65"/><circle cx="215" cy="258.33333333333337" r="4" fill="#254fdd" opacity=".65"/><circle cx="175" cy="316.3333333333333" r="4" fill="#254fdd" opacity=".65"/><circle cx="107" cy="345.3333333333333" r="4" fill="#254fdd" opacity=".65"/><circle cx="195" cy="316.3333333333333" r="4" fill="#254fdd" opacity=".65"/><circle cx="175" cy="316.3333333333333" r="4" fill="#254fdd" opacity=".65"/><circle cx="197" cy="287.3333333333333" r="4" fill="#254fdd" opacity=".65"/><circle cx="315" cy="258.33333333333337" r="4" fill="#254fdd" opacity=".65"/><circle cx="275" cy="258.33333333333337" r="4" fill="#254fdd" opacity=".65"/><circle cx="135" cy="326" r="4" fill="#254fdd" opacity=".65"/><circle cx="127" cy="335.6666666666667" r="4" fill="#254fdd" opacity=".65"/><circle cx="275" cy="258.33333333333337" r="4" fill="#254fdd" opacity=".65"/><circle cx="655" cy="142.33333333333334" r="4" fill="#254fdd" opacity=".65"/><circle cx="235" cy="297" r="4" fill="#254fdd" opacity=".65"/><circle cx="125" cy="335.6666666666667" r="4" fill="#254fdd" opacity=".65"/><circle cx="175" cy="316.3333333333333" r="4" fill="#254fdd" opacity=".65"/><circle cx="155" cy="326" r="4" fill="#254fdd" opacity=".65"/><circle cx="159" cy="335.6666666666667" r="4" fill="#254fdd" opacity=".65"/><circle cx="95" cy="345.3333333333333" r="4" fill="#254fdd" opacity=".65"/><circle cx="195" cy="287.3333333333333" r="4" fill="#254fdd" opacity=".65"/><circle cx="91" cy="350.1666666666667" r="4" fill="#254fdd" opacity=".65"/><circle cx="225" cy="258.33333333333337" r="4" fill="#254fdd" opacity=".65"/><circle cx="215" cy="277.6666666666667" r="4" fill="#254fdd" opacity=".65"/><circle cx="235" cy="316.3333333333333" r="4" fill="#254fdd" opacity=".65"/><circle cx="275" cy="287.3333333333333" r="4" fill="#254fdd" opacity=".65"/><circle cx="275" cy="316.3333333333333" r="4" fill="#254fdd" opacity=".65"/><circle cx="225" cy="297" r="4" fill="#254fdd" opacity=".65"/><circle cx="85" cy="345.3333333333333" r="4" fill="#254fdd" opacity=".65"/><circle cx="135" cy="326" r="4" fill="#254fdd" opacity=".65"/><circle cx="155" cy="326" r="4" fill="#254fdd" opacity=".65"/><circle cx="127" cy="335.6666666666667" r="4" fill="#254fdd" opacity=".65"/><circle cx="375" cy="277.6666666666667" r="4" fill="#254fdd" opacity=".65"/><circle cx="90" cy="345.3333333333333" r="4" fill="#254fdd" opacity=".65"/><circle cx="155" cy="326" r="4" fill="#254fdd" opacity=".65"/><circle cx="255" cy="297" r="4" fill="#254fdd" opacity=".65"/><circle cx="395" cy="258.33333333333337" r="4" fill="#254fdd" opacity=".65"/><circle cx="121" cy="335.6666666666667" r="4" fill="#254fdd" opacity=".65"/><circle cx="135" cy="326" r="4" fill="#254fdd" opacity=".65"/><circle cx="115" cy="335.6666666666667" r="4" fill="#254fdd" opacity=".65"/><circle cx="545" cy="161.66666666666669" r="4" fill="#254fdd" opacity=".65"/><circle cx="235" cy="326" r="4" fill="#254fdd" opacity=".65"/><circle cx="315" cy="258.33333333333337" r="4" fill="#254fdd" opacity=".65"/><circle cx="125" cy="316.3333333333333" r="4" fill="#254fdd" opacity=".65"/><circle cx="165" cy="326" r="4" fill="#254fdd" opacity=".65"/><circle cx="165" cy="316.3333333333333" r="4" fill="#254fdd" opacity=".65"/><circle cx="195" cy="287.3333333333333" r="4" fill="#254fdd" opacity=".65"/><circle cx="271" cy="219.66666666666666" r="4" fill="#254fdd" opacity=".65"/><circle cx="215" cy="316.3333333333333" r="4" fill="#254fdd" opacity=".65"/><circle cx="135" cy="326" r="4" fill="#254fdd" opacity=".65"/><circle cx="175" cy="316.3333333333333" r="4" fill="#254fdd" opacity=".65"/><circle cx="165" cy="316.3333333333333" r="4" fill="#254fdd" opacity=".65"/><circle cx="175" cy="335.6666666666667" r="4" fill="#254fdd" opacity=".65"/><circle cx="395" cy="200.33333333333334" r="4" fill="#254fdd" opacity=".65"/><circle cx="235" cy="306.6666666666667" r="4" fill="#254fdd" opacity=".65"/><circle cx="575" cy="123" r="4" fill="#254fdd" opacity=".65"/><circle cx="175" cy="316.3333333333333" r="4" fill="#254fdd" opacity=".65"/><circle cx="125" cy="335.6666666666667" r="4" fill="#254fdd" opacity=".65"/><circle cx="135" cy="335.6666666666667" r="4" fill="#254fdd" opacity=".65"/><circle cx="235" cy="277.6666666666667" r="4" fill="#254fdd" opacity=".65"/><circle cx="305" cy="210" r="4" fill="#254fdd" opacity=".65"/><circle cx="515" cy="239" r="4" fill="#254fdd" opacity=".65"/><circle cx="215" cy="277.6666666666667" r="4" fill="#254fdd" opacity=".65"/><circle cx="115" cy="335.6666666666667" r="4" fill="#254fdd" opacity=".65"/><circle cx="315" cy="258.33333333333337" r="4" fill="#254fdd" opacity=".65"/><circle cx="95" cy="340.5" r="4" fill="#254fdd" opacity=".65"/><circle cx="175" cy="297" r="4" fill="#254fdd" opacity=".65"/><circle cx="235" cy="306.6666666666667" r="4" fill="#254fdd" opacity=".65"/><circle cx="135" cy="326" r="4" fill="#254fdd" opacity=".65"/><circle cx="515" cy="200.33333333333334" r="4" fill="#254fdd" opacity=".65"/><circle cx="435" cy="258.33333333333337" r="4" fill="#254fdd" opacity=".65"/><circle cx="235" cy="277.6666666666667" r="4" fill="#254fdd" opacity=".65"/><circle cx="185" cy="316.3333333333333" r="4" fill="#254fdd" opacity=".65"/><circle cx="555" cy="123" r="4" fill="#254fdd" opacity=".65"/><circle cx="315" cy="277.6666666666667" r="4" fill="#254fdd" opacity=".65"/><circle cx="135" cy="316.3333333333333" r="4" fill="#254fdd" opacity=".65"/><circle cx="133" cy="316.3333333333333" r="4" fill="#254fdd" opacity=".65"/><circle cx="395" cy="190.66666666666666" r="4" fill="#254fdd" opacity=".65"/><circle cx="215" cy="239" r="4" fill="#254fdd" opacity=".65"/><circle cx="415" cy="248.66666666666669" r="4" fill="#254fdd" opacity=".65"/><circle cx="595" cy="181" r="4" fill="#254fdd" opacity=".65"/><circle cx="195" cy="316.3333333333333" r="4" fill="#254fdd" opacity=".65"/><circle cx="145" cy="326" r="4" fill="#254fdd" opacity=".65"/><circle cx="315" cy="258.33333333333337" r="4" fill="#254fdd" opacity=".65"/><circle cx="265" cy="277.6666666666667" r="4" fill="#254fdd" opacity=".65"/><circle cx="215" cy="287.3333333333333" r="4" fill="#254fdd" opacity=".65"/><circle cx="105" cy="340.5" r="4" fill="#254fdd" opacity=".65"/><circle cx="135" cy="326" r="4" fill="#254fdd" opacity=".65"/><circle cx="165" cy="306.6666666666667" r="4" fill="#254fdd" opacity=".65"/><circle cx="235" cy="297" r="4" fill="#254fdd" opacity=".65"/><circle cx="375" cy="219.66666666666666" r="4" fill="#254fdd" opacity=".65"/><circle cx="195" cy="326" r="4" fill="#254fdd" opacity=".65"/><circle cx="275" cy="277.6666666666667" r="4" fill="#254fdd" opacity=".65"/><circle cx="185" cy="306.6666666666667" r="4" fill="#254fdd" opacity=".65"/><circle cx="155" cy="316.3333333333333" r="4" fill="#254fdd" opacity=".65"/><circle cx="125" cy="335.6666666666667" r="4" fill="#254fdd" opacity=".65"/><circle cx="255" cy="316.3333333333333" r="4" fill="#254fdd" opacity=".65"/><circle cx="185" cy="297" r="4" fill="#254fdd" opacity=".65"/><circle cx="295" cy="258.33333333333337" r="4" fill="#254fdd" opacity=".65"/><circle cx="195" cy="316.3333333333333" r="4" fill="#254fdd" opacity=".65"/><circle cx="245" cy="306.6666666666667" r="4" fill="#254fdd" opacity=".65"/><circle cx="455" cy="219.66666666666666" r="4" fill="#254fdd" opacity=".65"/><circle cx="143" cy="316.3333333333333" r="4" fill="#254fdd" opacity=".65"/><circle cx="165" cy="316.3333333333333" r="4" fill="#254fdd" opacity=".65"/><circle cx="185" cy="306.6666666666667" r="4" fill="#254fdd" opacity=".65"/><circle cx="175" cy="326" r="4" fill="#254fdd" opacity=".65"/><circle cx="275" cy="268" r="4" fill="#254fdd" opacity=".65"/><circle cx="177" cy="326" r="4" fill="#254fdd" opacity=".65"/><circle cx="255" cy="277.6666666666667" r="4" fill="#254fdd" opacity=".65"/><circle cx="125" cy="340.5" r="4" fill="#254fdd" opacity=".65"/><circle cx="115" cy="340.5" r="4" fill="#254fdd" opacity=".65"/><circle cx="275" cy="306.6666666666667" r="4" fill="#254fdd" opacity=".65"/><circle cx="265" cy="268" r="4" fill="#254fdd" opacity=".65"/><circle cx="195" cy="287.3333333333333" r="4" fill="#254fdd" opacity=".65"/><circle cx="175" cy="306.6666666666667" r="4" fill="#254fdd" opacity=".65"/><circle cx="275" cy="258.33333333333337" r="4" fill="#254fdd" opacity=".65"/><circle cx="415" cy="219.66666666666666" r="4" fill="#254fdd" opacity=".65"/><circle cx="255" cy="258.33333333333337" r="4" fill="#254fdd" opacity=".65"/><circle cx="285" cy="248.66666666666669" r="4" fill="#254fdd" opacity=".65"/><circle cx="275" cy="306.6666666666667" r="4" fill="#254fdd" opacity=".65"/><circle cx="195" cy="316.3333333333333" r="4" fill="#254fdd" opacity=".65"/><circle cx="115" cy="326" r="4" fill="#254fdd" opacity=".65"/><circle cx="135" cy="330.8333333333333" r="4" fill="#254fdd" opacity=".65"/><circle cx="135" cy="326" r="4" fill="#254fdd" opacity=".65"/><circle cx="355" cy="258.33333333333337" r="4" fill="#254fdd" opacity=".65"/><circle cx="107" cy="340.5" r="4" fill="#254fdd" opacity=".65"/><circle cx="145" cy="335.6666666666667" r="4" fill="#254fdd" opacity=".65"/><circle cx="275" cy="297" r="4" fill="#254fdd" opacity=".65"/><circle cx="675" cy="142.33333333333334" r="4" fill="#254fdd" opacity=".65"/><circle cx="165" cy="277.6666666666667" r="4" fill="#254fdd" opacity=".65"/><circle cx="115" cy="330.8333333333333" r="4" fill="#254fdd" opacity=".65"/><circle cx="305" cy="239" r="4" fill="#254fdd" opacity=".65"/><circle cx="419" cy="258.33333333333337" r="4" fill="#254fdd" opacity=".65"/><circle cx="375" cy="277.6666666666667" r="4" fill="#254fdd" opacity=".65"/><circle cx="95" cy="345.3333333333333" r="4" fill="#254fdd" opacity=".65"/><circle cx="151" cy="326" r="4" fill="#254fdd" opacity=".65"/><circle cx="395" cy="239" r="4" fill="#254fdd" opacity=".65"/><circle cx="175" cy="335.6666666666667" r="4" fill="#254fdd" opacity=".65"/><circle cx="135" cy="335.6666666666667" r="4" fill="#254fdd" opacity=".65"/><circle cx="275" cy="239" r="4" fill="#254fdd" opacity=".65"/><circle cx="175" cy="316.3333333333333" r="4" fill="#254fdd" opacity=".65"/><circle cx="91" cy="350.1666666666667" r="4" fill="#254fdd" opacity=".65"/><circle cx="235" cy="297" r="4" fill="#254fdd" opacity=".65"/><circle cx="225" cy="287.3333333333333" r="4" fill="#254fdd" opacity=".65"/><circle cx="375" cy="219.66666666666666" r="4" fill="#254fdd" opacity=".65"/><circle cx="145" cy="326" r="4" fill="#254fdd" opacity=".65"/><circle cx="95" cy="345.3333333333333" r="4" fill="#254fdd" opacity=".65"/><circle cx="135" cy="335.6666666666667" r="4" fill="#254fdd" opacity=".65"/><circle cx="175" cy="316.3333333333333" r="4" fill="#254fdd" opacity=".65"/><circle cx="195" cy="316.3333333333333" r="4" fill="#254fdd" opacity=".65"/><circle cx="235" cy="316.3333333333333" r="4" fill="#254fdd" opacity=".65"/><circle cx="175" cy="297" r="4" fill="#254fdd" opacity=".65"/><circle cx="465" cy="181" r="4" fill="#254fdd" opacity=".65"/><circle cx="455" cy="219.66666666666666" r="4" fill="#254fdd" opacity=".65"/><circle cx="315" cy="239" r="4" fill="#254fdd" opacity=".65"/><circle cx="145" cy="326" r="4" fill="#254fdd" opacity=".65"/><circle cx="155" cy="326" r="4" fill="#254fdd" opacity=".65"/><circle cx="115" cy="335.6666666666667" r="4" fill="#254fdd" opacity=".65"/><circle cx="165" cy="287.3333333333333" r="4" fill="#254fdd" opacity=".65"/><circle cx="295" cy="258.33333333333337" r="4" fill="#254fdd" opacity=".65"/><circle cx="205" cy="316.3333333333333" r="4" fill="#254fdd" opacity=".65"/><circle cx="107" cy="335.6666666666667" r="4" fill="#254fdd" opacity=".65"/><circle cx="295" cy="239" r="4" fill="#254fdd" opacity=".65"/><circle cx="115" cy="340.5" r="4" fill="#254fdd" opacity=".65"/><circle cx="345" cy="229.33333333333331" r="4" fill="#254fdd" opacity=".65"/><circle cx="275" cy="287.3333333333333" r="4" fill="#254fdd" opacity=".65"/><circle cx="175" cy="316.3333333333333" r="4" fill="#254fdd" opacity=".65"/><circle cx="395" cy="200.33333333333334" r="4" fill="#254fdd" opacity=".65"/><circle cx="505" cy="219.66666666666666" r="4" fill="#254fdd" opacity=".65"/><circle cx="195" cy="306.6666666666667" r="4" fill="#254fdd" opacity=".65"/><circle cx="235" cy="297" r="4" fill="#254fdd" opacity=".65"/><circle cx="305" cy="277.6666666666667" r="4" fill="#254fdd" opacity=".65"/><circle cx="105" cy="335.6666666666667" r="4" fill="#254fdd" opacity=".65"/><circle cx="235" cy="297" r="4" fill="#254fdd" opacity=".65"/><circle cx="165" cy="326" r="4" fill="#254fdd" opacity=".65"/><circle cx="235" cy="297" r="4" fill="#254fdd" opacity=".65"/><circle cx="255" cy="287.3333333333333" r="4" fill="#254fdd" opacity=".65"/><circle cx="395" cy="277.6666666666667" r="4" fill="#254fdd" opacity=".65"/><circle cx="135" cy="335.6666666666667" r="4" fill="#254fdd" opacity=".65"/><circle cx="415" cy="219.66666666666666" r="4" fill="#254fdd" opacity=".65"/><circle cx="315" cy="219.66666666666666" r="4" fill="#254fdd" opacity=".65"/><circle cx="155" cy="326" r="4" fill="#254fdd" opacity=".65"/><circle cx="115" cy="335.6666666666667" r="4" fill="#254fdd" opacity=".65"/><circle cx="175" cy="316.3333333333333" r="4" fill="#254fdd" opacity=".65"/><circle cx="115" cy="326" r="4" fill="#254fdd" opacity=".65"/><circle cx="195" cy="258.33333333333337" r="4" fill="#254fdd" opacity=".65"/><circle cx="235" cy="297" r="4" fill="#254fdd" opacity=".65"/><circle cx="235" cy="268" r="4" fill="#254fdd" opacity=".65"/><text x="375" y="409" text-anchor="middle" font-size="16">Distance (km)</text><text transform="translate(20 215) rotate(-90)" text-anchor="middle" font-size="16">Duration (hours)</text></g></svg>